<svg xmlns="http://www.w3.org/2000/svg" viewBox="0 0 32 32"><defs><linearGradient id="a" x1="5.67" x2="26.33" y1="16" y2="16" gradientUnits="userSpaceOnUse"><stop offset="0" stop-color="#93278f"/><stop offset="1" stop-color="#c1272d"/></linearGradient></defs><path fill="url(#a)" d="M25.33,31H6.67a1,1,0,0,1-1-1V2a1,1,0,0,1,1-1H22.09c1.63,0,4.24,2.5,4.24,4.05V30A1,1,0,0,1,25.33,31ZM7.67,29H24.33V5.05a4.44,4.44,0,0,0-2.24-2H7.67ZM22.5,26H9.5a1,1,0,0,1,0-2h13a1,1,0,0,1,0,2Zm0-3H9.5a1,1,0,0,1,0-2h13a1,1,0,0,1,0,2Zm0-3H9.5a1,1,0,0,1,0-2h13a1,1,0,0,1,0,2Zm0-3H9.5a1,1,0,0,1,0-2h13a1,1,0,0,1,0,2Zm0-3H9.5a1,1,0,0,1,0-2h13a1,1,0,0,1,0,2Zm0-3H9.5a1,1,0,0,1,0-2h13a1,1,0,0,1,0,2Zm-2-3h-9a1,1,0,0,1,0-2h9a1,1,0,0,1,0,2Z" data-name="Layer 2"/></svg>